<svg id="Слой_1" data-name="Слой 1" xmlns="http://www.w3.org/2000/svg" viewBox="0 0 512 512"><defs><style>.cls-1{fill:#fff;}</style></defs><title>design</title><path class="cls-1" d="M1,262c4.78-17.22,18.7-20.74,33.81-22.91,11.68-1.68,23.27-4,34.9-6.12,4.93-.89,6-3.49,3.12-7.66-8.81-12.74-17.7-25.42-26.46-38.19-8.51-12.41-7.36-25,3.24-35.72Q66,134.89,82.5,118.54c10.2-10.09,23.17-11.24,34.93-3,12.56,8.78,25,17.76,37.49,26.6,5,3.56,7.14,2.62,8.24-3.49,2.68-14.89,5.34-29.8,8.09-44.68s12.56-23,27.48-23c8.83,0,17.66-.06,26.5,0,6.34,0,10,3.26,10,8.6s-3.64,8.57-10,8.62c-8.5.07-17,0-25.49,0-6.94.07-9.64,2.42-10.86,9.14-2.32,12.88-4.65,25.75-7,38.94,8.06-1.27,15.53-2.74,23.06-3.57a157.52,157.52,0,0,1,57.49,3.93c7.29,1.9,10,8.85,5.67,14.11-2.92,3.56-6.66,3.62-10.89,2.58-28.59-7.07-57-6.24-84.39,4.67C117.71,179.9,85.73,220.64,80,279.67A141.09,141.09,0,0,0,202.29,433.59c55.51,7.35,100.92-12.55,135.37-56.91.92-1.19,1.72-2.47,2.68-3.62,3.58-4.3,8.27-5.07,12.31-2.05s4.69,7.9,1.62,12.42a150.28,150.28,0,0,1-31.95,34.2c-5.6,4.36-11.5,8.34-17.63,12.76,11.64,8.07,22.91,16,34.33,23.74,4.22,2.85,8.24,1.69,11.71-1.78L375.12,428c1.06-1.06,2.09-2.17,3.24-3.12,3.88-3.19,8.95-3,12.17.39a8.28,8.28,0,0,1,.14,11.76c-10.14,10.35-20.21,20.82-30.95,30.53-8.44,7.62-21.09,7.49-31.09.69-12.8-8.71-25.47-17.62-38.21-26.43-5.39-3.72-7.45-2.87-8.59,3.43-2.68,14.9-5.49,29.77-8.05,44.69C271.7,502.06,264.1,509.05,253,513H193c-14-4.12-20.41-13.88-22.22-28.05-1.73-13.5-4.69-26.85-7.22-40.25-1.1-5.8-3.22-6.57-8.11-3.19-12.73,8.81-25.39,17.71-38.18,26.43-11.87,8.09-24.76,6.87-34.94-3.21q-16.51-16.35-32.87-32.85C39,421.29,37.84,408.35,46.38,396.16S63.49,372,72,359.87c3.79-5.36,3-7.59-3.32-8.73C57,349,45.13,347.09,33.38,344.77c-6.31-1.24-12.74-2.53-18.69-4.89C7.27,336.93,4.05,329.87,1,323ZM181.7,447.24c2.61,14.52,4.91,28.1,7.53,41.62.82,4.21,4,6.61,8.3,6.64,16.48.1,33,.13,49.43,0,4.49,0,7.45-2.59,8.35-7.15q1.21-6.1,2.32-12.24c1.68-9.4,3.32-18.82,5.08-28.83A166.73,166.73,0,0,1,181.7,447.24ZM65.33,251.37c-13,2.37-26.51,4.78-40,7.34a7.77,7.77,0,0,0-6.77,8.1q-.21,24.72,0,49.45c0,4.31,2.36,7.47,6.61,8.29,13.65,2.64,27.35,5,40.36,7.34-1.25-13.45-3.42-26.61-3.44-39.78C62,278.73,64.11,265.35,65.33,251.37ZM83.4,210.71A163.67,163.67,0,0,1,141,153.14c-12.34-8.43-24-16.6-35.92-24.42-3.19-2.1-6.9-1.17-9.64,1.54q-17.57,17.38-34.95,35c-2.84,2.88-3.66,6.61-1.34,10.08C67,187,75.07,198.61,83.4,210.71Zm57.88,219.61C117.11,416,98.41,397,83.9,373.11,75.56,385.19,67.62,396.46,60,407.92c-2.49,3.73-1.87,7.73,1.34,10.95q16.88,17,33.91,33.9c3.91,3.86,7.49,4.16,12.13,1C118.48,446.2,129.51,438.47,141.28,430.32Z" transform="translate(-1 -1)"/><path class="cls-1" d="M513,101c-3.66,7.73-9.05,13-18.26,13a4,4,0,0,0-2.71,2.26c-9,22.32-18,44.68-27,67.25,10.19,3.56,13.82,10.93,13.35,21.07-.31,6.81,0,13.66-.08,20.49-.14,12.07-7,18.83-18.95,18.89-2.14,0-4.28,0-7.08,0,0,7.66,0,14.93,0,22.21,0,15-6,21-21.18,21.3-1.46,0-2.92.2-4.86.34v5.68c0,14.49-.11,29,.06,43.48.05,4.76-1.5,8.18-5.43,11-8.66,6.21-17,12.84-25.65,19.08-2.57,1.85-3.68,3.77-3.58,7,.23,8,.13,16,.05,24-.06,6.91-3.53,11-9,10.86-5.31-.13-8.52-4.13-8.55-10.75,0-8.16.2-16.33-.15-24.48a9.16,9.16,0,0,0-3-6.07c-8.48-6.72-17.16-13.2-25.94-19.53a12.77,12.77,0,0,1-5.75-11.41c.15-14.33,0-28.65,0-43v-6.29c-3.15,0-5.92.16-8.67,0-10.51-.73-17.07-7.61-17.34-18.17-.11-4.16,0-8.32,0-12.49V244c-2.83,0-5.43,0-8,0-10.11-.15-17.51-6.92-17.91-17-.35-8.82-.32-17.67,0-26.48.32-8.61,5.24-14.09,13.5-17-7.72-19.33-15.36-38.44-23-57.56-.49-1.24-1.14-2.42-1.52-3.68-1.52-5.1-3.47-8.53-10-9.33-8.62-1.06-13.48-7.88-13.53-16.63-.16-26-.1-52,0-78,0-9.08,5.46-14.2,13.31-17.37H500a22.88,22.88,0,0,1,13,13Zm-17.81-4.93V18.79H270.33V96.07ZM292.08,114.14a19.69,19.69,0,0,0,.55,2.12c8.49,21.31,17.05,42.59,25.41,63.94,1.13,2.88,3,3,5.41,3q59.21,0,118.41.06c3.37,0,4.95-1,6.18-4.14,7.79-20.14,15.81-40.2,23.74-60.3.56-1.42.94-2.92,1.49-4.63ZM434.81,244.2c-1.91-.08-3.38-.21-4.85-.21-15.5,0-31,0-46.49,0-5.41,0-9.18-3.55-9.36-8.36s3.3-8.44,8.78-9c1.65-.15,3.33-.11,5-.11h72.68V201.05H305.16v25.16c1.58.12,2.88.29,4.19.29,12.5,0,25-.08,37.49.08,6.21.08,10.09,3.72,10,8.81s-4.09,8.52-10.19,8.58c-5.11.05-10.23,0-15.45,0v25.63H434.81ZM408.9,287.87h-52c0,15.34-.07,30.3.11,45.25,0,1.32,1.33,3,2.5,3.86,6.69,5.21,13.59,10.15,20.27,15.37,2.2,1.71,3.73,1.87,6,.06,6.65-5.25,13.59-10.16,20.27-15.38,1.27-1,2.67-2.81,2.69-4.27C409,318,408.9,303.17,408.9,287.87Z" transform="translate(-1 -1)"/><path class="cls-1" d="M166,291.36a56.44,56.44,0,1,1,112.88.66c-.16,30.91-25.76,56.26-56.6,56A56.22,56.22,0,0,1,166,291.36Zm95.2.45a38.58,38.58,0,0,0-38.88-39,38.95,38.95,0,1,0,38.88,39Z" transform="translate(-1 -1)"/><path class="cls-1" d="M105.1,290c1.52-31.51,10.53-60.8,35.81-82.92,6.08-5.32,13.23-9.49,20.17-13.72,4.89-3,10.12-1.31,12.46,3.18s.86,9.26-4,11.88c-32.92,17.74-45.31,47-46.75,82.55a44.66,44.66,0,0,1-.48,6.46,8.77,8.77,0,0,1-8.78,7.36,8.9,8.9,0,0,1-8.39-8.4C105,294.6,105.1,292.76,105.1,290Z" transform="translate(-1 -1)"/><path class="cls-1" d="M200.67,183.15a8.76,8.76,0,0,1-17.51.19,8.76,8.76,0,0,1,17.51-.19Z" transform="translate(-1 -1)"/><path class="cls-1" d="M409,53c-20,0-40,.06-60,0-7.16,0-11.47-6-8.81-12,1.79-4,5.15-5.28,9.36-5.26,12.66.08,25.33,0,38,0q40.25,0,80.49,0c6.32,0,9.81,2.83,10.17,7.9.4,5.66-3.3,9.32-9.72,9.34C448.61,53.06,428.78,53,409,53Z" transform="translate(-1 -1)"/><path class="cls-1" d="M304.77,35.85c3.16,0,6.33-.21,9.46,0A8.17,8.17,0,0,1,322,44.56a8.24,8.24,0,0,1-8.12,8.38c-6.14.21-12.3.21-18.44,0a8.53,8.53,0,0,1-.15-17C298.44,35.65,301.61,35.84,304.77,35.85Z" transform="translate(-1 -1)"/></svg>