<svg id="Слой_1" data-name="Слой 1" xmlns="http://www.w3.org/2000/svg" viewBox="0 0 510.43 512.18"><defs><style>.cls-1{fill:#fff;}</style></defs><title>factoring</title><path class="cls-1" d="M512.11,412.67q-9.74-48-56.73-61.85c-2.34-.68-4.72-1.23-7.57-2,8-9.87,12.47-20.72,12.89-32.86a196.61,196.61,0,0,0-.67-26.92c-2.76-26.56-23.12-45.51-50.66-47.79a54.66,54.66,0,0,0-42,14.45v-52c-.34-1.1-.77-2.19-1-3.31q-5-24.39-19.5-40-14.06-15.09-37.23-21.88l-.86-.24c-2.07-.58-4.21-1.08-6.71-1.73,8-9.87,12.47-20.72,12.89-32.86.14-4,.2-8.11.15-12.17-.07-4.93-.31-9.86-.82-14.75a57.35,57.35,0,0,0-.94-6c-5-23.39-24.3-39.71-49.72-41.81-25.84-2.14-50.25,13.85-56.21,39.05-.25,1-.48,2.08-.71,3.12A120.92,120.92,0,0,0,204,91.38c-.67,15.68,2.62,31,13.41,45.19a31.2,31.2,0,0,1-3.34,1.12c-1.6.34-3.18.73-4.74,1.16a76.44,76.44,0,0,0-56.87,74.51q0,23.67,0,47.33a54.62,54.62,0,0,0-30-18.22c-23.78-5.4-47.83,5.8-60.59,26.86-9.43,15.54-10.77,61.33,4.22,77.38a14.4,14.4,0,0,1,1.53,2.49c-1.22.38-2,.7-2.79.86C40.22,355.16,22,369,10.87,391.27c-3.88,7.74-5.53,16.6-8.19,25v89a11,11,0,0,1,.93,1.12c3,4.75,7.1,6.69,11.64,5.44,4.74-1.3,7.3-4.89,7.39-10.53.07-3.84,0-7.67,0-11.5V465.52H49.74c0,11,0,21.69,0,32.34,0,11.32,2.94,14.32,14.08,14.32q46.74,0,93.49,0c11.72,0,14.43-2.69,14.43-14.36v-32h25.94c0,11.39,0,22.38,0,33.37a24.92,24.92,0,0,0,.3,5.47,9.93,9.93,0,0,0,10.94,7.45c5.39-.72,8.69-4.72,8.7-11,.05-25.5.35-51-.07-76.5-.46-28.13-13.07-50-36.95-64.59-8.35-5.12-18.09-8-26.21-11.44,2.9-7,7.54-14.66,9-22.86a129.66,129.66,0,0,0,1.91-26.45c4.08-1.16,6.8-4.78,7-9.76.13-3.83,0-7.66,0-11.49,0-8.28,0-16.56,0-25h27.07c0,11.44,0,22.56,0,33.69,0,9.62,3.36,13,12.82,13.05q18.75,0,37.48,0c20.16,0,40.32,0,60.47,0,7.15,0,11-3.7,11.2-10.52.11-3.83,0-7.66,0-11.49V253.2h25.93v5.63c0,10.16-.11,20.32.05,30.48a11,11,0,0,0,2.8,7.34c-2,18.09.47,35.87,12.85,52.14a31.2,31.2,0,0,1-3.34,1.12c-36.55,7.83-61.53,38.47-61.61,75.67-.05,24.49,0,49,0,73.46,0,.84,0,1.67,0,2.5.27,6.19,4.19,10.29,9.9,10.34s9.81-4,10-10.17c.13-3.83,0-7.66,0-11.49,0-8.28,0-16.56,0-25h27.07c0,11.44,0,22.56,0,33.69,0,9.62,3.36,13,12.82,13.05q18.75,0,37.48,0c20.16,0,40.32,0,60.47,0,7.15,0,11-3.7,11.2-10.52.11-3.83,0-7.66,0-11.49V465.42h25.93v5.63c0,10.16-.11,20.32.05,30.48.14,8.1,7.84,12.94,14.58,9.09,2.16-1.23,3.59-3.72,5.36-5.64V416C512.77,414.88,512.34,413.79,512.11,412.67ZM76.86,286.72c3.24-16.16,19.07-26.61,35.44-25.24,18,1.5,30.9,13.67,32.5,30.85.41,4.47.46,9,.67,13.46.23,10.17-.67,20-7.08,28.5a35.17,35.17,0,0,1-37.75,13C86.85,343.44,76.31,331.47,75.55,317,75,306.92,74.89,296.51,76.86,286.72Zm120.7,136.14c.34,7.28.05,14.58.05,22.3H171.74c0-6.22,0-12.31,0-18.4,0-7.55-3.54-11.8-9.73-11.94-6.39-.14-10.25,4.3-10.26,12q0,29.73,0,59.47v5.65h-82v-5.28c0-21.32,0-42.64,0-64,0-6.41-2.73-10.28-7.67-11.29-6.67-1.37-12.12,3-12.28,10.2-.18,7.62,0,15.25,0,23.18H23.5c-6.95-41.69,15.73-73.95,53.58-75.63,22.11-1,44.31-.68,66.44,0C172.91,369.93,196.18,393.45,197.56,422.86ZM226.47,74c3.93-15.73,19.14-26.17,35.34-25,13.36,1,24.12,8,29.32,18.57a30.86,30.86,0,0,1,2.41,6.72,33.42,33.42,0,0,1,.87,5.37c.42,5.16.62,10.37.55,15.57,0,3.13-.17,6.26-.41,9.37A33.64,33.64,0,0,1,289.48,120,34.11,34.11,0,0,1,273,133.52,36.19,36.19,0,0,1,259.45,136a35.07,35.07,0,0,1-14.19-3.09,34.26,34.26,0,0,1-15.8-14.49,35,35,0,0,1-4.35-14.16,84.56,84.56,0,0,1-.08-9c0-.82,0-1.65,0-2.47l-.87-.06C224.91,86.44,225,80,226.47,74ZM347.31,232.54H321.43c0-6.68.16-13.44-.05-20.19-.22-7.44-6.79-12-13.54-9.36-4.83,1.86-6.43,5.83-6.42,10.78q.06,30,0,60v5.85h-82V274.2c0-21.32,0-42.64,0-64,0-6.43-2.7-10.28-7.62-11.32a11.63,11.63,0,0,0-2.38-.26l-2.93.7c-.53.13-1.05.23-1.57.32-3.2,1.59-5.35,5-5.46,9.38-.19,7.63,0,15.27,0,23.21H173.24c-3-17.58-.6-33.75,6.15-46.58A53.42,53.42,0,0,1,193,168.93c8.65-7,19.72-11.4,32.78-12.16q3.18-.18,6.36-.32c17.9-.79,35.88-.5,53.82,0l7.25.2a54.91,54.91,0,0,1,32.38,11.59,55.75,55.75,0,0,1,14,16,57,57,0,0,1,7.7,25.67C347.67,217.3,347.31,224.78,347.31,232.54Zm24.89,53.63c3.93-15.73,19.14-26.17,35.34-24.95,18,1.35,31.22,13.52,32.6,30.66a157.33,157.33,0,0,1,.14,24.94c-1.44,18.2-16.69,31.52-35.1,31.38a34.52,34.52,0,0,1-34.34-31.74c-.33-3.8,0-7.65,0-11.48l-.87-.06C370.64,298.66,370.69,292.23,372.2,286.17ZM493,444.76H467.16c0-6.68.16-13.44-.05-20.19-.22-7.44-6.79-12-13.54-9.36-4.83,1.86-6.44,5.83-6.42,10.78q.06,30,0,60v5.85h-82v-5.38c0-21.32,0-42.64,0-64,0-6.43-2.7-10.28-7.62-11.32-6.64-1.4-12.16,3-12.34,10.14-.19,7.63,0,15.27,0,23.21H319c-6.79-40.37,14.43-73.29,52.54-75.5,22.41-1.31,45-.79,67.43-.15,29.22.82,52.36,24,54,53.24C493.4,429.52,493,437,493,444.76Z" transform="translate(-2.68 0)"/><path class="cls-1" d="M205,199.68c.52-.09,1-.19,1.57-.32l2.93-.7A9.89,9.89,0,0,0,205,199.68Z" transform="translate(-2.68 0)"/><path class="cls-1" d="M481.19,41.26a49.61,49.61,0,0,0-.62-9.45C476.71,12.55,461.07,0,440.84,0q-136.5,0-273,0c-9.07,0-13.72,3.44-13.68,10.1S158.65,20,168,20H437c1.83,0,3.67-.06,5.5.05,10.95.61,18.63,8.5,18.67,19.46q.12,33,0,66c0,11.46-8,19.36-19.59,19.5-7.83.09-15.67-.06-23.5,0-6.55.09-10.53,4-10.8,10.57-.12,2.9,0,5.8,0,9.77-7.25-6.18-13.35-11.82-19.95-16.8a17.61,17.61,0,0,0-9.45-3.41c-11.82-.4-23.66-.15-35.49-.18a35.9,35.9,0,0,1-3.89-.44c9.91-11.51,11.3-20.09,5.25-30.87Q340.55,88,337.2,82.46c-5.4-8.95-14-13.07-23.84-11.59a57.35,57.35,0,0,1,.94,6c.51,4.89.75,9.82.82,14.75,5.64-.36,7.21,2.71,11.21,12.53a5.52,5.52,0,0,1-1,4.67c-3.14,3.65-6.74,6.91-10.05,10.42a23.09,23.09,0,0,0-6.46,19.14l.86.24q23.18,6.78,37.23,21.88a23.65,23.65,0,0,0-5.48-11.09c-1-1.17-2-2.39-3.62-4.33,12,0,22.9-.17,33.84.13a13.2,13.2,0,0,1,7.49,2.81c10,8.24,19.9,16.73,29.65,25.31,3.82,3.36,7.83,5.31,12.71,3.16s6-6.59,5.91-11.63c-.17-6.44-.05-12.89-.05-19.78,4.66,0,8.62,0,12.59,0,25.07-.15,41.22-16.28,41.28-41.3Q481.28,72.52,481.19,41.26Zm-281,75.22-.35-.36c-10.58-10.71-10.66-10.77-1.65-23.08.93-1.27,3.67-2,5.38-1.74a3,3,0,0,1,.41.08,120.92,120.92,0,0,1,2.77-20.15c-10.56-2.38-20.05,1.66-25.67,11-2.58,4.27-5.15,8.56-7.49,13a22.7,22.7,0,0,0,3.15,26.05c.91,1,1.76,2.14,3.12,3.81-14,0-27.15-.26-40.28.17A19.52,19.52,0,0,0,129.23,129c-6.39,4.73-12.22,10.24-19.43,16.42,0-3.59,0-5.87,0-8.15-.15-8.48-3.86-12.18-12.25-12.22-6.67,0-13.34,0-20,0C64.64,125,57,117.39,57,104.55q-.06-31.74,0-63.5C57,28.28,63.33,21.32,76.06,20c6-.63,10.17-5.09,9.82-10.49S81,.06,75,.05a28.48,28.48,0,0,0-5,.39C50,4,37.06,19.2,36.88,40c-.2,21.67-.08,43.33,0,65a43,43,0,0,0,.89,9.42c4.12,18.11,19,30.13,37.63,30.58,4.58.11,9.17,0,14.11,0,0,7.51,0,14.16,0,20.81,0,4.69,1.49,8.66,6,10.63s8.37.67,12-2.47c6.89-6.05,14.46-11.42,20.72-18.05,8.3-8.78,17.65-12.51,29.7-11,7.12.87,14.42.16,22.55.16-1.38,1.62-2,2.37-2.63,3.09-4.26,4.7-6.58,9.66-6.94,14.8a77.59,77.59,0,0,1,38.43-24.1C210.74,131.44,207.69,124.11,200.16,116.48Zm4.8,83.2c.52-.09,1-.19,1.57-.32l2.93-.7A9.89,9.89,0,0,0,205,199.68Z" transform="translate(-2.68 0)"/><path class="cls-1" d="M130.19,10.26a9.6,9.6,0,0,1-9.88,9.65A10,10,0,0,1,110.23,9.8,10.4,10.4,0,0,1,120.29,0,9.82,9.82,0,0,1,130.19,10.26Z" transform="translate(-2.68 0)"/></svg>