<svg xmlns="http://www.w3.org/2000/svg" viewBox="0 0 177.61 177.61"><defs><style>.cls-1{fill:#4b9db4;}.cls-2{fill:#5db073;}</style></defs><title>Icon (копия)</title><g id="Слой_2" data-name="Слой 2"><g id="Vestford_icon" data-name="Vestford icon"><g id="Icon_копия_" data-name="Icon (копия)"><path class="cls-1" d="M103.09,21.37H70.44c-.22,0-.44,0-.67,0A49.17,49.17,0,0,0,21.39,69.77H69.77V44.4h33.32Z"/><path class="cls-1" d="M9.51,67.22A57.89,57.89,0,0,1,67.22,9.51h35.87V0H64.63A64.83,64.83,0,0,0,0,64.63v5.14H9.51Z"/><path class="cls-1" d="M168.1,110.39a57.88,57.88,0,0,1-57.69,57.71H74.54v9.51H113A64.82,64.82,0,0,0,177.61,113v-5.14H168.1Z"/><path class="cls-1" d="M107.84,133.21H74.54v23h32.65c.22,0,.45,0,.65,0a49.17,49.17,0,0,0,48.4-48.38h-48.4Z"/><path class="cls-2" d="M9.51,110.39V74.52H0V113a64.83,64.83,0,0,0,64.63,64.63h5.14V168.1H67.22A57.89,57.89,0,0,1,9.51,110.39Z"/><path class="cls-2" d="M44.42,74.52h-23v32.65c0,.22,0,.44,0,.67a49.18,49.18,0,0,0,48.38,48.38V107.84H44.42Z"/><path class="cls-2" d="M156.24,69.77a49.16,49.16,0,0,0-48.4-48.38V69.77h25.37v33.3h23V70.44C156.26,70.22,156.26,70,156.24,69.77Z"/><path class="cls-2" d="M113,0h-5.14V9.51h2.57A57.88,57.88,0,0,1,168.1,67.22v35.85h9.51V64.63A64.82,64.82,0,0,0,113,0Z"/></g></g></g></svg>