<svg id="Слой_1" data-name="Слой 1" xmlns="http://www.w3.org/2000/svg" viewBox="0 0 454.04 512"><defs><style>.cls-1{fill:#fff;}</style></defs><title>marketing</title><path class="cls-1" d="M264,1c2.47.87,5,1.67,7.41,2.62a40.84,40.84,0,0,1,25.08,44.7c-.24,1.48.63,4,1.79,4.73q58,33.75,116.25,67.19a6.27,6.27,0,0,0,1,.38c13.71-12.47,29.31-15.41,46.05-7.28,15.56,7.55,23.32,20.63,22.26,38-1,16.65-9.79,28.36-25.18,34.69-3.74,1.54-4.77,3.32-4.76,7.2q.22,64,0,128c0,3.41.76,5.1,4.27,6.49,15.44,6.17,24.42,17.77,25.61,34.4,1.27,17.57-6.46,30.83-22.22,38.53-15.47,7.56-30.35,5.71-43.8-5.42-.77-.63-1.52-1.27-2.44-2l-59.24,34.19c-18.59,10.73-37.14,21.54-55.81,32.13-3.33,1.88-4.5,3.46-3.77,7.67,3.39,19.52-9.84,39.21-29.41,44.65-1.07.3-2.1.78-3.15,1.17H250c-2.16-.74-4.33-1.45-6.48-2.23-18.21-6.59-29.26-25.91-26-45.1.25-1.48-.61-4.05-1.76-4.72Q157.45,427.08,99,393.53a1.64,1.64,0,0,0-.46-.12C81.14,407.06,64,408.79,48,398.23c-13.49-8.88-19.51-21.74-17.76-37.64,1.7-15.46,10.22-26.58,24.66-32.48,4.16-1.7,5.2-3.66,5.19-7.92-.17-42.49-.11-85-.1-127.48,0-2.67.18-4.73-3.35-6.08-15.88-6.08-25.26-17.72-26.48-34.82-1.26-17.59,6.51-30.85,22.28-38.5s31-5.6,44.54,6.16c.5.43,1,.8,1.7,1.3,6.37-3.66,12.7-7.32,19.06-10.94,6.66-3.8,12.52-2.89,15.67,2.38,3.28,5.49,1.15,11.09-5.81,15.15-5.33,3.1-10.61,6.26-16,9.17-2.33,1.26-2.77,2.67-2.32,5.21a40,40,0,0,1-25.37,44.75c-3.12,1.14-4,2.51-4,5.63q.15,65,0,130c0,2.89.74,4.22,3.7,5.3,18.48,6.74,28.83,25.3,25.75,45.09a5.62,5.62,0,0,0,2,4.66c38.83,22.6,77.75,45,117,67.68,8-7.73,17.58-11.81,28.73-11.77a39.74,39.74,0,0,1,28.53,11.79l51.5-29.72c21.19-12.24,42.34-24.53,63.6-36.64,3.31-1.88,4.57-3.46,3.76-7.71-3.36-17.67,8.13-36.92,25.62-43.28,3.11-1.14,4-2.46,4-5.61q-.15-65,0-130c0-2.88-.71-4.24-3.68-5.33-18.48-6.75-28.93-25.43-25.77-45.07.23-1.39-.52-3.81-1.59-4.43-39-22.69-78-45.22-117.37-67.93C277.6,76.86,268.06,81,256.9,80.92a39.47,39.47,0,0,1-28.45-11.77c-6.48,3.71-12.8,7.39-19.17,11s-12.18,2.4-15.2-2.89S193,66.45,199.39,62.71c5.31-3.11,10.74-6,15.9-9.39,1.26-.82,2.52-3.11,2.31-4.51C214.29,26.4,226.48,7.65,248.31,1.9A8.11,8.11,0,0,0,250,1ZM69.46,129A20.2,20.2,0,0,0,50,149.09C50,160,59.45,169.28,70.16,169a20,20,0,1,0-.7-40Zm394.47,19.85A19.88,19.88,0,0,0,443.79,129c-10.58,0-19.65,9.17-19.73,19.86s9.29,20.25,20,20.1A19.89,19.89,0,0,0,463.93,148.86ZM50,364.88c-.19,10.59,8.72,19.79,19.46,20.11s20.38-8.88,20.48-19.64A20,20,0,1,0,50,364.88Zm414,.31a20,20,0,1,0-39.94-.14c-.12,10.71,9.34,20.06,20.16,19.94S464,375.77,464,365.19ZM257.2,21.12A19.88,19.88,0,0,0,237,40.92c-.19,10.53,8.82,19.79,19.53,20.07S276.9,52.09,277,41.32A19.9,19.9,0,0,0,257.2,21.12ZM277,473a20,20,0,1,0-40,.19c0,10.75,9.52,20,20.33,19.78S277.1,483.54,277,473Z" transform="translate(-29.93 -1)"/><path class="cls-1" d="M127,257c0-22.49.08-45-.07-67.47,0-5.26,1.93-8.78,6.46-11.39q58.64-33.7,117.17-67.62c4.56-2.65,8.6-2.49,13.09.11Q322,144.41,380.38,178c4.69,2.7,6.69,6.32,6.67,11.78q-.18,67.22,0,134.44c0,5.46-2,9.1-6.66,11.79Q322,369.59,263.68,403.37c-4.7,2.72-8.84,2.59-13.53-.14q-58.07-33.71-116.31-67.11c-4.89-2.81-7-6.5-6.9-12.15C127.13,301.65,127,279.32,127,257ZM246.78,377.89c.11-1.55.23-2.49.23-3.43,0-36,0-71.93.09-107.9,0-3.3-1.53-4.62-4-6Q197,234,151.05,207.43c-1.1-.64-2.28-1.14-3.82-1.89-.1,1.43-.24,2.37-.24,3.31,0,36,0,71.93-.09,107.9,0,3,1.21,4.36,3.57,5.72q44.78,25.71,89.45,51.58C242,375.27,244.18,376.43,246.78,377.89ZM367,205.6a17.14,17.14,0,0,0-2.14.77q-47.53,27.42-95.1,54.78c-2.8,1.6-2.82,3.65-2.82,6.2q0,53,0,105.92c0,1.38.18,2.77.31,4.55,1.37-.71,2.25-1.13,3.09-1.61q46.68-26.94,93.4-53.8c2.86-1.64,3.27-3.57,3.26-6.42q-.1-40,0-79.94Zm-70.13-52.53c-12.38-7.14-23.95-13.64-35.31-20.48-3.23-2-5.55-2.09-8.94-.11-30.3,17.7-60.74,35.15-91.13,52.7-1.23.7-2.37,1.54-4.09,2.67,13,7.51,25.46,14.81,38.07,21.83,1.14.64,3.51-.16,4.94-1,10.44-5.87,20.79-11.9,31.16-17.89Zm60,34.66c-12.29-7.12-23.87-13.68-35.28-20.53-3.21-1.92-5.6-2.08-9-.11-30.17,17.64-60.46,35.06-90.72,52.56-1.38.8-2.73,1.68-4.55,2.81,13,7.48,25.3,14.71,37.81,21.64,1.25.7,3.8.06,5.28-.78,15.35-8.69,30.61-17.55,45.89-26.37Z" transform="translate(-29.93 -1)"/><path class="cls-1" d="M153.94,94.88c0-5.71,3.92-9.82,9.55-9.95a9.77,9.77,0,0,1,10.32,9.84,10.17,10.17,0,0,1-10.22,10.1A9.72,9.72,0,0,1,153.94,94.88Z" transform="translate(-29.93 -1)"/><path class="cls-1" d="M336.35,289c5.58.28,8.9,2.43,10.54,6.77s.2,9-4.08,11.76c-4.59,3-9.44,5.58-14.19,8.33-6.91,4-13.78,8.05-20.75,11.95-5.91,3.3-11.76,2-14.71-3.17S292,313.84,298,310.32q16.56-9.7,33.27-19.19A38.53,38.53,0,0,1,336.35,289Z" transform="translate(-29.93 -1)"/></svg>