<?xml version="1.0" encoding="utf-8"?>
<!-- Generator: Adobe Illustrator 23.0.5, SVG Export Plug-In . SVG Version: 6.00 Build 0)  -->
<svg version="1.1" id="Слой_1" xmlns="http://www.w3.org/2000/svg" xmlns:xlink="http://www.w3.org/1999/xlink" x="0px" y="0px"
	 viewBox="0 0 373.8 372.1" style="enable-background:new 0 0 373.8 372.1;" xml:space="preserve">
<style type="text/css">
	.st0{fill:#FFFFFF;}
</style>
<g>
	<path class="st0" d="M187.1,0c71.3-0.1,136.7,52,149.7,121.4c12,64.1-9.4,116.2-62.1,155.3c-24.4,18.1-44.8,39.6-60.3,65.6
		c-3.9,6.6-7.9,13.1-11.9,19.7c-8.1,13.4-23.3,13.5-31.3,0.1c-10.4-17.4-21.1-34.4-34.6-49.7c-13.7-15.6-29.5-28.7-45.7-41.7
		c-33.9-27.1-53-62.4-56.7-105.4C27.6,86.8,81.1,17.5,159.3,3C168.5,1.3,177.8,1,187.1,0z M254.9,152.9c0.1-37.4-30.2-67.9-67.5-68
		c-38.2,0-68.5,29.9-68.6,67.7c-0.1,37.1,30.4,67.2,68.1,67.4C224.1,220.3,254.8,189.9,254.9,152.9z"/>
</g>
</svg>
