<svg id="Слой_1" data-name="Слой 1" xmlns="http://www.w3.org/2000/svg" viewBox="0 0 512 512"><defs><style>.cls-1{fill:#fff;}</style></defs><title>certification</title><path class="cls-1" d="M435,1c1.95.82,3.93,1.55,5.83,2.46,11.19,5.34,17.74,14.14,18,26.59.4,17.66.18,35.33.1,53,0,6.49-4.2,10.87-9.91,10.88s-10-4.34-10-10.81c-.1-16.17,0-32.33,0-48.5C439,24.54,435.5,21,425.54,21h-391C24.54,21,21,24.53,21,34.52q0,222.48,0,445c0,10,3.55,13.53,13.58,13.53h391c10,0,13.46-3.55,13.48-13.63,0-7.66-.05-15.33,0-23,.07-6.86,4.09-11.33,10-11.31s9.86,4.49,9.92,11.38c.08,8.33.06,16.67,0,25-.08,15.26-7.43,25.42-21.91,30.41A13.14,13.14,0,0,0,435,513H25c-6.88-2.81-13.83-5.65-18-12.26C4.66,497,3,492.93,1,489V25C3.81,18.12,6.65,11.17,13.26,7,17,4.66,21.07,3,25,1Z" transform="translate(-1 -1)"/><path class="cls-1" d="M513,241c-2.52,9.42-7.64,16.82-16.3,21.68-4.27,2.39-4.21,6.86-4.54,11-1.13,13.82-9.93,23.95-23.41,26.88a18.75,18.75,0,0,1-2.47.32c-12.17,1-17.3,6.49-17.3,18.68,0,27.83-.05,55.67.06,83.5,0,5.05-1,9.42-5.9,11.63-5.15,2.32-9.33.15-13-3.59-7.43-7.63-14.89-15.24-22.84-23.37l-14.91,14.81c-3.19,3.17-6.36,6.37-9.59,9.5s-7.26,4.85-11.8,2.76S365,409.08,365,404.27q.11-43.5,0-87c0-9.2-6.47-16-15.59-16.33a28.68,28.68,0,0,1-27.55-26.56c-.19-2.31-.58-4.61-.94-7.41h-6q-92,0-184,0a34,34,0,0,1-6-.25,9.9,9.9,0,0,1,0-19.44,35,35,0,0,1,6-.25q82.74,0,165.49,0h6.5c-3.44-9.9-1.94-19,3.41-28H131.17a37.21,37.21,0,0,1-6-.22,9.91,9.91,0,0,1,0-19.54,34.64,34.64,0,0,1,5.49-.2H301c-.31-9.75,1.39-19.05,9.17-24.55,8-5.68,11.38-12.28,12.74-21.94,1.82-12.93,12.91-21.35,26.62-22.07,6.07-.31,9.68-2.77,12.84-7.71a28.16,28.16,0,0,1,36.91-9.81c5.44,2.82,10.05,2.82,15.49,0a28.1,28.1,0,0,1,36.9,9.81c3.3,5.21,7.19,7.35,13.34,7.76,15.55,1,26.09,11.88,27.1,27.4.38,5.83,2.32,10.05,7.62,13C507.17,175,510.41,182.34,513,190v11c-1.82,4-3.87,7.92-5.35,12a9.22,9.22,0,0,0,.15,5.73c1.48,4.17,3.44,8.16,5.2,12.23Zm-84.34,61.31c2.51-2.24,5.8-4.21,7.74-7.08,6.06-9,14.17-13.79,25-14.18,7.54-.28,10.48-3.13,10.86-10.66.56-10.9,5.15-19.4,14.49-25.3,6.74-4.26,7.75-8,4-15.07-5-9.58-5-19,0-28.62,3.7-7.07,2.72-10.93-3.94-15.11-9.19-5.76-13.86-14-14.53-24.75-.5-8.1-2.85-10.86-10.82-11.21-11.29-.48-19.53-5.56-25.46-15-3.58-5.71-7.77-7-13.55-3.86-10.4,5.67-20.49,5.65-30.88,0-5.62-3.07-9.94-1.89-13.26,3.51-6.08,9.86-14.57,15-26.26,15.46-7.35.28-9.86,3.29-10.25,10.7-.57,10.91-5.22,19.36-14.59,25.23-6.51,4.08-7.62,8-4.09,14.67,5.25,9.92,5.19,19.63-.06,29.53-3.43,6.49-2.38,10.46,3.87,14.35,9.56,6,14.17,14.57,14.87,25.63.48,7.6,3.39,10.27,11,10.55q15.9.57,24.52,13.92c4.58,7.1,8.23,8.06,15.88,4.2,9.29-4.67,18.52-4.63,27.8,0C423,300.23,425.2,300.93,428.66,302.31ZM385.44,323.1v58.62c4.77-5,8.6-9.14,12.61-13.12,6.47-6.43,11.44-6.37,18,.08,4.07,4,8.09,8,12.68,12.59V323.19c-6-2.16-11.33-4.42-16.86-5.89a19.38,19.38,0,0,0-9.45-.13C396.75,318.67,391.29,321,385.44,323.1Z" transform="translate(-1 -1)"/><path class="cls-1" d="M390.32,69.24H69V263.83a38.61,38.61,0,0,1-.17,5.49,9.89,9.89,0,0,1-19.62,0,30.5,30.5,0,0,1-.17-4.49q0-101.22,0-202.45C49,52.2,52.24,49,62.52,49H397.44C407.75,49,411,52.19,411,62.34c0,7.16.08,14.33,0,21.49-.1,6.8-4.28,11.26-10.2,11.1-5.7-.15-9.58-4.52-9.73-11.09-.11-4.66-.11-9.32-.18-14C390.85,69.73,390.65,69.61,390.32,69.24Z" transform="translate(-1 -1)"/><path class="cls-1" d="M69,444.78H391c0-3.84-.1-7.46,0-11.08.2-6.39,4.43-10.76,10.17-10.63,5.54.12,9.59,4.36,9.72,10.55.14,7,.16,14,0,21-.16,6.34-4.06,10.05-10.45,10.35-1.33.06-2.66,0-4,0H63.6C51.73,465,49,462.23,49,450.19v-102c0-1.5-.06-3,0-4.5.35-6.07,4.56-10.24,10.15-10.11,5.43.12,9.52,4.17,9.72,10S69,355.3,69,361.13v83.65Z" transform="translate(-1 -1)"/><path class="cls-1" d="M246.49,315c-18.49,0-37,0-55.49,0-6.45,0-10.36-3.07-11.14-8.43a9.66,9.66,0,0,1,8.06-11.29,34.46,34.46,0,0,1,5.48-.22H299.88c1.16,0,2.33,0,3.49,0,6,.3,10.44,4.47,10.48,9.91s-4.36,9.85-10.37,10c-8.33.18-16.66.06-25,.06Z" transform="translate(-1 -1)"/><path class="cls-1" d="M250.29,374.87c-3.14,3.7-5.24,6.78-7.95,9.21-4.34,3.89-9.61,3.67-13.52,0s-4-9.47-.44-14c.31-.39.68-.73,1-1.11,14.63-16.9,27-17.78,41.73-.84,1.64,1.88,3.27,3.77,5.37,6.19,2.05-2,3.56-3.39,5-4.84,5.36-5.23,10.51-10.67,16.11-15.62a9.45,9.45,0,0,1,13.1.44c3.56,3.47,4.58,8.86,1.06,12.63-7.79,8.38-15.72,16.78-24.53,24-7,5.76-17.15,4.09-24.18-2.53C259,384.55,255.32,380.23,250.29,374.87Z" transform="translate(-1 -1)"/><path class="cls-1" d="M177.76,139c-7.65,0-15.3.06-22.95,0-6.83-.06-11.4-4.07-11.48-9.87s4.55-10,11.29-10q22.95-.11,45.9,0c6.89,0,11.36,4,11.41,9.87s-4.41,10-11.22,10.05C193.06,139.05,185.41,139,177.76,139Z" transform="translate(-1 -1)"/><path class="cls-1" d="M115.83,119.07a9.93,9.93,0,1,1-9.76,10A10.13,10.13,0,0,1,115.83,119.07Z" transform="translate(-1 -1)"/><path class="cls-1" d="M58.79,314.93a9.94,9.94,0,1,1,10.14-9.6A10.09,10.09,0,0,1,58.79,314.93Z" transform="translate(-1 -1)"/><path class="cls-1" d="M406.8,222C417.87,211,428,200.62,438.41,190.52a18.78,18.78,0,0,1,7.47-4.48c4.05-1.19,7.52.59,9.84,4.14s2.77,7.74-.08,10.68q-21.21,21.85-43.08,43.06c-3.71,3.58-8.62,2.42-12.24-1-7-6.66-13.86-13.48-20.47-20.51a9.63,9.63,0,0,1,.13-13.92,9.92,9.92,0,0,1,14,.08C398.32,212.63,402.23,217.19,406.8,222Z" transform="translate(-1 -1)"/></svg>