<svg id="Слой_1" data-name="Слой 1" xmlns="http://www.w3.org/2000/svg" viewBox="0 0 373.17 373.28"><defs><style>.cls-1{fill:#fff;}</style></defs><title>email</title><path class="cls-1" d="M249,254.05c-40.26,35.28-95.73,27.57-126.26-5.05A90.53,90.53,0,0,1,117,132.12C142.8,98.34,196.78,82.54,242.2,114.7c.33-1.46.58-2.88,1-4.26a18,18,0,0,1,35.3,4.65q.07,54.93,0,109.86c0,11.2,4.61,19.89,14.6,25.16,14.72,7.77,32,.71,37.52-15C359.06,153.32,309.29,62.18,225,41.69,141.59,21.41,59.37,73.11,41.68,157c-17.15,81.25,36.75,161.88,118.6,177.37,36.84,7,71.49.81,104-17.76,4.62-2.65,9.35-4.26,14.63-3,7.49,1.82,12.29,6.54,13.81,14.13,1.57,7.87-1.65,14.9-8.7,19.14a182.85,182.85,0,0,1-54.27,21.81C139.78,389,49.83,340.49,16.67,257.4-10.06,190.42-1,127.08,43.24,70,74,30.34,115.61,7.7,165.44,1.46a185.77,185.77,0,0,1,205,146.33c7.34,34.61,5.72,69-7,102.08-9.17,23.8-27.69,37.2-53.05,39-26.09,1.88-46.14-9.37-59.65-31.91C250.14,256,249.6,255,249,254.05Zm-6.53-66.83c-.11-29.74-24.4-54.1-53.89-54a54.19,54.19,0,0,0-54.11,54.16c0,29.66,24.61,54,54.43,53.84C218.28,241.05,242.61,216.51,242.51,187.22Z" transform="translate(-1.65 0)"/></svg>