<svg id="Слой_1" data-name="Слой 1" xmlns="http://www.w3.org/2000/svg" viewBox="0 0 374.12 373.36"><defs><style>.cls-1{fill:#fff;}</style></defs><title>phone</title><path class="cls-1" d="M2.14,25.79c2.17-4.54,3.77-9.48,6.63-13.53C14,4.9,21.71,1.2,30.67,1.12c23.56-.21,47.13-.31,70.69,0a28.84,28.84,0,0,1,28.31,27.79c.75,16.87,1.74,33.71,5.9,50.15,1.71,6.75,4.14,13.31,6.12,20a25.4,25.4,0,0,1-.58,16.8,41.05,41.05,0,0,1-5.58,9.18q-15.75,21-31.74,41.74a3.49,3.49,0,0,0-.37,4.5c8.62,15.38,17.74,30.46,29.33,43.79a247.18,247.18,0,0,0,62.19,51.56c3.36,1.95,6.85,3.69,10.06,5.85,2.27,1.53,3.86,1.43,6.05-.26q20.88-16.14,42-32c7.33-5.5,15.6-6.85,24.49-4.68,11.65,2.85,23.2,6.26,35,8.25a257,257,0,0,0,32.6,2.85c18.92.74,31,12.79,31,31.72,0,21.26-.34,42.52.11,63.77.32,15.44-9.09,28.6-24,31.62a3.3,3.3,0,0,0-.9.55H329.49a39.29,39.29,0,0,0-4.25-.72,327.9,327.9,0,0,1-65.63-10.44A345.44,345.44,0,0,1,119.5,288.77c-45.64-39.69-78.27-88.44-98.3-145.52A328.45,328.45,0,0,1,3.43,59.18c-.29-3.85-.86-7.68-1.29-11.52Z" transform="translate(-2.14 -0.92)"/></svg>