<svg id="Слой_1" data-name="Слой 1" xmlns="http://www.w3.org/2000/svg" viewBox="0 0 512 512"><defs><style>.cls-1{fill:#fff;}</style></defs><title>sale</title><path class="cls-1" d="M513,238c-7.06,7.23-14.05,14.52-21.19,21.68q-38.65,38.74-77.4,77.41a30.61,30.61,0,0,1-4.06,3.68,9.94,9.94,0,0,1-13.51-14.2,38.28,38.28,0,0,1,3.73-4q44.52-44.55,89.11-89a10.56,10.56,0,0,0,3.41-8.29c-.11-41.32,0-82.65-.17-124,0-2.66-1.35-5.31-2.49-9.46-8.56,8.59-15.88,15.8-23,23.24-.74.78-.36,3,.06,4.44,5.14,16.82-4.08,34-20.73,38.5s-33.3-5.7-37.21-22.89c-5-22,16.43-41.53,38.34-34.65,3.29,1,5.05.52,7.27-1.8,6.33-6.59,12.9-13,20.64-20.69-3.52-1.22-6-2.85-8.53-2.85q-62.73-.24-125.46,0a10.06,10.06,0,0,0-6.47,2.6Q208,204.81,80.82,332.13C73,340,73,348.91,80.74,356.71Q145.9,422,211.16,487.14c8.1,8.08,16.89,7.88,25.32-.53q47.4-47.34,94.74-94.73c6.7-6.7,12.49-7.59,17.17-2.66,4.42,4.64,3.4,10.51-2.95,16.86q-44.19,44.18-88.32,88.41c-7.9,8-15.77,15.72-27.12,18.51H217c-11.08-2.89-18.94-10.34-26.75-18.19q-61.31-61.67-122.9-123c-16.74-16.75-16.71-37.88.08-54.7q25.93-26,52-51.89c1.22-1.2,3.2-1.63,4.83-2.43l-1.78-2.29H117.1c-26.15,0-52.3.08-78.45,0-17.72-.06-31.25-9.84-36.26-25.84C2,233.38,1.47,232.2,1,231V31c2.63-5.49,4.68-11.38,8-16.39C14.16,7,22.4,3.49,31,1H410c4,3.88,8.11,7.69,12.07,11.64,13.08,13,26.16,26,39.11,39.18,2.27,2.3,4.53,3.69,7.79,3.2,7.37-1.1,13.38,1.2,17.89,7.23a9.87,9.87,0,0,0,1.84,1.63c4.29-3.05,7.93-6.86,12.36-8.47,5.48-2,9.28,1.94,11.94,6.59v6l-9.09,11L513,89ZM436.11,55c-11.46-11.43-21.77-21.84-32.3-32a8.92,8.92,0,0,0-5.76-1.93Q218.35,20.92,38.66,21C27.6,21,21,27.68,21,38.82q0,92,0,183.94c0,11,6.47,17.44,17.34,17.45,34,0,68,.07,102-.09a10.26,10.26,0,0,0,6.48-2.57c11.47-11.14,22.71-22.52,34-33.85a35.07,35.07,0,0,0,2.47-3.13c-22.23.1-32.36-16-32.72-29.36-.44-15.91,11.51-29.17,28-30.81,16.92-1.67,28.81,10,32.73,32.51,1.47-1.37,2.81-2.53,4.06-3.78Q270,114.53,324.54,59.88a15.52,15.52,0,0,1,11.93-4.94c31,.15,62,.08,93,.08ZM439,119a10,10,0,1,0,9.92,9.9A10.43,10.43,0,0,0,439,119ZM190.37,170.58a9.79,9.79,0,1,0-10,9.62A9.57,9.57,0,0,0,190.37,170.58Z" transform="translate(-1 -1)"/><path class="cls-1" d="M231.75,267a32.68,32.68,0,0,1,4.44,1.66q36.07,18.25,72.07,36.61c6.49,3.32,8.7,8.87,5.94,14.34s-8.5,7.08-15,3.54c-3.34-1.82-5.43-1.68-8,1.26a156.5,156.5,0,0,1-13.06,13.08c-3,2.65-3.58,4.77-1.46,8.44,3.28,5.67,2,11.06-2.47,14.16-5.3,3.66-11.72,1.85-15-4.48C253.51,344.7,248,333.7,242.4,322.73c-6.87-13.5-13.83-27-20.55-40.51C218.05,274.56,222.57,266.88,231.75,267Zm23.08,33.68-.66.85c3.5,6.83,7,13.67,10.48,20.45l11.14-10.61Z" transform="translate(-1 -1)"/><path class="cls-1" d="M153.55,352a29.38,29.38,0,0,1,8.12-20.45c4.69-5,9.53-9.8,14.45-14.53,4.63-4.44,10.73-4.52,14.72-.44s3.93,9.89-.66,14.69c-4,4.22-8.26,8.24-12.34,12.41-4.84,4.94-5.31,10.85-1.27,15.05s9.42,4.09,14.68-.36c13.59-11.49,31.3-11,42.67,1.27s10.66,30.25-2,43c-4.1,4.14-8.18,8.32-12.39,12.35-4.68,4.47-10.62,4.57-14.69.44s-3.87-10,.64-14.67c4.16-4.32,8.53-8.43,12.67-12.77,4.74-5,5-10.38.91-14.65s-9.52-4.36-14.65.33a30,30,0,0,1-49.76-14.3C154.07,357,153.92,354.47,153.55,352Z" transform="translate(-1 -1)"/><path class="cls-1" d="M370.55,206.87l15,14.7c3.38-3.65,6.87-7.66,10.63-11.42,5.12-5.13,11.12-5.4,15.37-1,4,4.19,3.59,10.21-1.19,15.08q-8.76,8.91-17.67,17.67c-5.67,5.55-10.75,5.51-16.47-.18q-27.09-27-54.07-54.07c-5.74-5.76-5.79-10.77-.21-16.47q8.74-8.92,17.66-17.68c5-4.89,10.81-5.29,15.07-1.22,4.52,4.32,4.21,10.14-.87,15.41-3.58,3.71-7.22,7.36-10.83,11.05a.68.68,0,0,0-.13.3L357.14,193c3.44-3.61,7.11-7.67,11-11.51,4.76-4.67,11-4.83,15.07-.61s3.77,10-.79,14.7C378.6,199.53,374.48,203.17,370.55,206.87Z" transform="translate(-1 -1)"/><path class="cls-1" d="M333,273.68c5.72-5.88,10.28-10.71,15-15.39,5.22-5.18,11-5.52,15.39-1.1,4.16,4.25,3.65,10.32-1.4,15.44q-10,10.13-20.15,20.14c-5.69,5.6-10.82,5.62-16.47,0q-27.09-27-54.07-54.07c-5.19-5.2-5.66-11-1.39-15.38,4.52-4.61,10.18-4.2,15.73,1.33q22,21.87,43.81,43.84C330.71,269.78,331.53,271.51,333,273.68Z" transform="translate(-1 -1)"/><path class="cls-1" d="M373,374.22a9.79,9.79,0,0,1-9.93-9.7,10,10,0,1,1,19.93.06A9.81,9.81,0,0,1,373,374.22Z" transform="translate(-1 -1)"/><path class="cls-1" d="M93,187.32a27.93,27.93,0,0,1,1.84-4.75q31.56-56.08,63.22-112.08c3.44-6.08,8.92-7.88,14.2-5s6.64,8.8,3.31,14.72Q143.87,136.54,112,192.73c-2.8,5-6.94,6.7-11.65,5.41C95.92,196.92,93.05,193.23,93,187.32Z" transform="translate(-1 -1)"/><path class="cls-1" d="M126.1,91A30,30,0,1,1,96.44,61,29.8,29.8,0,0,1,126.1,91ZM96.26,81A10,10,0,0,0,95.84,101,10,10,0,1,0,96.26,81Z" transform="translate(-1 -1)"/></svg>